# Blender 3.6.2
# www.blender.org
mtllib T2_trunk.mtl
o Stump_average_high_Cube.015
v -18.227188 5.754131 -0.567707
v -18.064438 6.521149 -0.627176
v -18.514790 5.754131 -2.380636
v -17.908100 6.524673 -2.012891
v -16.306694 5.754131 -0.367440
v -16.682697 6.609663 -0.850945
v -16.568146 5.754131 -2.062918
v -16.812330 6.598575 -1.961014
v -16.913193 5.754131 -2.812202
v -17.508642 5.761637 -2.112517
v -17.450357 6.618531 -1.984098
v -17.083639 6.614297 -2.107796
v -17.696671 5.754131 0.061180
v -17.121042 5.757692 -0.538532
v -17.203049 6.545533 -0.580844
v -17.665524 6.484351 -0.437688
v -17.979460 5.771555 -1.557975
v -18.918991 5.754131 -0.821944
v -18.111969 6.615091 -1.136230
v -18.096121 6.519356 -1.625090
v -16.527468 5.764469 -1.103918
v -15.661962 5.754131 -1.814396
v -16.690321 6.565153 -1.673088
v -16.577564 6.574045 -1.198825
v -17.169827 8.993673 -1.665134
v -17.288353 8.993673 -1.734870
v -17.698196 9.334340 -1.659019
v -17.781101 9.334340 -1.484418
v -17.493614 5.754131 -1.541523
v -17.602894 5.754131 -0.996113
v -16.972975 5.754131 -1.623944
v -17.089382 5.754131 -1.052999
v -17.850590 7.350764 -1.543092
v -17.720341 7.350764 -1.817394
v -17.123444 7.350764 -1.926888
v -16.922207 7.350764 -1.808491
v -16.758179 7.350764 -1.237893
v -16.819595 7.350764 -0.969344
v -17.541912 7.350764 -0.728230
v -17.829103 7.350764 -0.841653
v -17.403620 7.350764 -1.834298
v -17.221226 7.350764 -0.797362
v -17.908688 7.350764 -1.185256
v -16.844959 7.350764 -1.585251
v -17.056919 8.993673 -1.270475
v -17.095245 9.068221 -1.102892
v -17.590248 8.993673 -0.937934
v -17.769886 8.993673 -1.008879
v -17.483147 9.089363 -1.670496
v -17.369177 9.064356 -0.985591
v -17.821869 8.993673 -1.233323
v -17.118355 8.993673 -1.516388
v -17.823166 9.334340 -1.497528
v -17.726460 9.334340 -1.701193
v -17.283270 8.993673 -1.782491
v -17.133858 8.993673 -1.694583
v -17.012068 8.993673 -1.270923
v -17.057671 9.068221 -1.071530
v -17.593979 8.993673 -0.892507
v -17.807213 8.993673 -0.976721
v -17.491299 9.089363 -1.713744
v -17.355873 9.064356 -0.943836
v -17.866302 8.993673 -1.231841
v -17.076502 8.993673 -1.528831
v -17.781101 8.955526 -1.484418
v -17.698196 8.955526 -1.659019
v -17.288353 8.955526 -1.734870
v -17.169827 8.955526 -1.665134
v -17.056919 8.955526 -1.270475
v -17.095245 8.955526 -1.102892
v -17.590248 8.955526 -0.937934
v -17.769886 8.955526 -1.008879
v -17.483147 8.955526 -1.670496
v -17.369177 8.955526 -0.985591
v -17.821869 8.955526 -1.233323
v -17.118355 8.955526 -1.516388
vn -0.9318 0.2483 0.2649
vn 0.7500 0.4230 -0.5085
vn 0.9715 0.2109 -0.1085
vn -0.6126 0.3446 0.7113
vn 0.0055 -1.0000 -0.0062
vn -0.3088 0.2103 -0.9276
vn 0.9443 0.2227 0.2423
vn 0.4074 0.2322 0.8833
vn -0.0000 -1.0000 -0.0000
vn 0.0049 -1.0000 0.0027
vn 0.0558 0.3183 0.9463
vn 0.5431 0.2980 0.7850
vn 0.1794 0.2191 -0.9591
vn -0.6158 0.3109 -0.7240
vn -0.0099 -0.9999 -0.0045
vn -0.0087 -0.9999 0.0105
vn -0.0117 -0.9997 -0.0232
vn 0.9494 0.2110 -0.2328
vn -0.3653 0.3358 0.8682
vn -0.0114 0.2180 -0.9759
vn -0.9544 0.2757 -0.1145
vn 0.9153 0.2111 -0.3430
vn -0.9406 0.2926 0.1725
vn 0.0073 -0.9999 0.0136
vn 0.4259 0.4433 -0.7887
vn 0.7433 0.4814 0.4645
vn -0.5915 0.4979 0.6342
vn -0.7691 0.1850 -0.6117
vn -0.3661 0.0811 0.9270
vn 0.9601 0.1436 -0.2399
vn 0.3908 0.1087 0.9140
vn 0.9688 0.1498 0.1977
vn 0.9353 0.1429 -0.3236
vn -0.3041 0.0523 -0.9512
vn 0.5032 0.1241 -0.8552
vn -0.9885 0.0190 -0.1501
vn -0.0254 0.0628 -0.9977
vn 0.4814 0.2374 -0.8437
vn -0.8623 0.2944 -0.4121
vn 0.2324 0.2689 0.9347
vn -0.9737 0.0315 0.2255
vn -0.9031 0.0223 -0.4288
vn 0.1974 0.1013 0.9751
vn 0.9871 -0.0000 0.1603
vn -0.0000 1.0000 -0.0000
vn 0.1303 0.9286 -0.3475
vn 0.6959 0.6540 -0.2966
vn 0.4252 0.9050 -0.0143
vn -0.0104 0.9999 0.0072
vn -0.2879 0.9572 0.0316
vn -0.1057 0.6092 0.7860
vn -0.3936 -0.0000 -0.9193
vn 0.3673 -0.0000 -0.9301
vn -0.9450 -0.0000 0.3270
vn 0.9033 -0.0000 0.4289
vn -0.2107 -0.0000 -0.9775
vn 0.0533 -0.0000 0.9986
vn -0.9702 -0.0000 0.2424
vn -0.5071 -0.0000 0.8619
vn 0.9742 -0.0000 -0.2256
vn 0.3138 -0.0000 0.9495
vn -0.9748 -0.0000 -0.2229
vt 0.231645 0.504774
vt 0.264028 0.403794
vt 0.316886 0.410251
vt 0.352645 0.539809
vt 0.206385 0.675734
vt 0.293497 0.539809
vt 0.320728 0.546398
vt 0.320728 0.673223
vt 0.692986 0.029705
vt 0.680272 0.145772
vt 0.632035 0.143545
vt 0.587227 -0.000000
vt -0.000000 0.457361
vt 0.091188 0.368009
vt 0.123107 0.375455
vt 0.094146 0.484520
vt 0.573260 0.684391
vt 0.519828 0.622983
vt 0.587301 0.534937
vt 0.636099 0.644626
vt 0.523273 0.370037
vt 0.468822 0.378389
vt 0.452559 0.272096
vt 0.494028 0.265237
vt 0.662745 0.259527
vt 0.626127 0.253425
vt 0.904710 0.139689
vt 0.988606 0.138902
vt 0.991093 0.248881
vt 0.929008 0.257068
vt 0.754867 0.878830
vt 0.623300 0.739636
vt 0.754867 0.661271
vt 0.726146 0.776447
vt 1.000000 0.000000
vt 0.897135 0.025957
vt 0.834335 0.141451
vt 0.792485 0.031171
vt 0.352646 0.534937
vt 0.408065 0.404900
vt 0.486165 0.502341
vt 0.587226 0.494604
vt 0.484780 0.822943
vt 0.352646 0.812424
vt 0.496656 0.719018
vt 0.550284 0.772939
vt 0.538436 0.963257
vt 0.589410 0.831150
vt 0.748461 0.161882
vt 0.712534 0.272349
vt 0.789359 0.160894
vt 0.882445 0.264766
vt 0.848484 0.274648
vt 0.407903 0.280859
vt 0.198073 0.377175
vt 0.224231 0.271472
vt 0.274060 0.280257
vt 0.789359 0.178611
vt 0.744846 0.281227
vt 0.174977 0.260528
vt 0.411116 0.708765
vt 0.363614 0.581795
vt -0.000000 0.643878
vt 0.073806 0.539809
vt 0.080498 0.548299
vt 0.080498 0.737642
vt 0.779952 0.023565
vt 0.137165 0.504343
vt 0.080498 0.539809
vt 0.206385 0.656385
vt 0.185560 0.670754
vt 0.080498 0.690602
vt 0.917737 0.499940
vt 0.892522 0.507277
vt 0.653842 0.504395
vt 0.616874 0.494874
vt 1.000000 0.498624
vt 0.953820 0.504159
vt 0.587227 0.500637
vt 0.677832 0.510987
vt 0.392158 0.028037
vt 0.425431 0.036437
vt 0.519132 0.258185
vt 0.444070 0.031201
vt 0.278057 0.041307
vt 0.324946 0.000000
vt 0.352646 -0.000000
vt 0.557852 0.362894
vt 0.311367 0.285403
vt 0.241487 0.033181
vt 0.352645 0.003821
vt 0.754867 0.693795
vt 0.802829 0.661023
vt 0.808238 0.661276
vt 0.808584 0.696308
vt 0.352387 0.582172
vt 0.352387 0.610052
vt 0.346094 0.613799
vt 0.346094 0.581279
vt 0.212664 0.781496
vt 0.227646 0.794503
vt 0.225271 0.800774
vt 0.206385 0.784378
vt 0.286804 0.791823
vt 0.308082 0.778699
vt 0.314097 0.782398
vt 0.288803 0.797977
vt 0.307776 0.703622
vt 0.289821 0.682315
vt 0.292504 0.675734
vt 0.313817 0.701027
vt 0.346094 0.580208
vt 0.346324 0.539809
vt 0.352645 0.540344
vt 0.352645 0.581279
vt 0.212674 0.751661
vt 0.206385 0.752532
vt 0.311531 0.735863
vt 0.317853 0.735766
vt 0.256740 0.685511
vt 0.254901 0.679367
vt 0.343601 0.541386
vt 0.342813 0.597732
vt 0.337593 0.596741
vt 0.337593 0.539809
vt 0.250352 0.794712
vt 0.250574 0.801007
vt 0.185467 0.746919
vt 0.118239 0.798409
vt 0.085417 0.751646
vt 0.337593 0.596399
vt 0.336885 0.638098
vt 0.320728 0.638062
vt 0.321990 0.596364
vt 0.326197 0.539821
vt 0.327727 0.563796
vt 0.322258 0.563784
vt 0.320728 0.539809
vt 0.326705 0.697838
vt 0.326197 0.719917
vt 0.320728 0.719938
vt 0.321235 0.697860
vt 0.756549 0.717071
vt 0.810265 0.719585
vt 0.766814 0.580439
vt 0.754867 0.534937
vt 0.798807 0.566083
vt 0.782338 0.591443
vt 0.327165 0.661668
vt 0.321696 0.661689
vt 0.754867 0.624816
vt 0.760680 0.612354
vt 0.765105 0.615491
vt 0.759292 0.627952
vt 0.804856 0.627952
vt 0.810265 0.628205
vt 0.336885 0.638098
vt 0.320728 0.638162
vt 0.080498 0.720971
vt 0.102600 0.703977
vt 0.136770 0.690603
vt 0.170002 0.691118
vt 0.185467 0.714295
vt 0.177253 0.789111
vt 0.154785 0.799605
vt 0.095698 0.795668
vt 0.082260 0.781071
s 0
f 17/1/1 20/2/1 4/3/1 3/4/1
f 9/5/2 12/6/2 8/7/2 7/8/2
f 21/9/3 24/10/3 6/11/3 5/12/3
f 13/13/4 16/14/4 2/15/4 1/16/4
f 32/17/5 21/18/5 5/19/5 14/20/5
f 12/21/6 11/22/6 41/23/6 35/24/6
f 6/11/7 24/10/7 37/25/7 38/26/7
f 15/27/8 6/28/8 38/29/8 42/30/8
f 18/31/9 30/32/9 13/33/9 1/34/9
f 30/32/10 32/17/10 14/20/10 13/33/10
f 5/35/11 6/28/11 15/27/11 14/36/11
f 14/36/12 15/27/12 16/37/12 13/38/12
f 3/39/13 4/40/13 11/22/13 10/41/13
f 10/41/14 11/22/14 12/21/14 9/42/14
f 10/43/15 9/44/15 31/45/15 29/46/15
f 29/46/9 31/45/9 32/17/9 30/32/9
f 3/47/16 10/43/16 29/46/16 17/48/16
f 17/48/17 29/46/17 30/32/17 18/31/17
f 24/10/18 23/49/18 44/50/18 37/25/18
f 2/51/19 16/37/19 39/52/19 40/53/19
f 11/22/20 4/40/20 34/54/20 41/23/20
f 20/2/21 19/55/21 43/56/21 33/57/21
f 23/49/22 8/58/22 36/59/22 44/50/22
f 19/55/23 2/15/23 40/60/23 43/56/23
f 9/44/9 7/61/9 22/62/9 31/45/9
f 31/45/24 22/62/24 21/18/24 32/17/24
f 7/63/25 8/64/25 23/65/25 22/66/25
f 22/67/26 23/49/26 24/10/26 21/9/26
f 1/16/27 2/15/27 19/55/27 18/68/27
f 18/69/28 19/70/28 20/71/28 17/72/28
f 40/53/29 39/52/29 59/73/29 60/74/29
f 37/25/30 44/50/30 64/75/30 57/76/30
f 42/30/31 38/29/31 58/77/31 62/78/31
f 38/26/32 37/25/32 57/76/32 58/79/32
f 44/50/33 36/59/33 56/80/33 64/75/33
f 35/24/34 41/23/34 61/81/34 55/82/34
f 36/83/35 35/24/35 55/82/35 56/84/35
f 33/57/36 43/56/36 63/85/36 53/86/36
f 41/23/37 34/54/37 54/87/37 61/81/37
f 8/88/38 12/21/38 35/24/38 36/83/38
f 4/3/39 20/2/39 33/57/39 34/89/39
f 16/37/40 15/27/40 42/30/40 39/52/40
f 43/56/41 40/60/41 60/90/41 63/85/41
f 34/89/42 33/57/42 53/86/42 54/91/42
f 39/52/43 42/30/43 62/78/43 59/73/43
f 28/92/44 51/93/44 75/94/44 65/95/44
f 28/96/45 27/97/45 54/98/45 53/99/45
f 26/100/45 25/101/45 56/102/45 55/103/45
f 45/104/46 46/105/46 58/106/46 57/107/46
f 47/108/45 48/109/45 60/110/45 59/111/45
f 27/112/47 49/113/47 61/114/47 54/115/47
f 49/116/48 26/100/48 55/103/48 61/117/48
f 46/105/49 50/118/49 62/119/49 58/106/49
f 50/118/50 47/108/50 59/111/50 62/119/50
f 48/109/45 51/120/45 63/121/45 60/110/45
f 51/122/51 28/123/51 53/124/51 63/125/51
f 25/101/45 52/126/45 64/127/45 56/102/45
f 52/126/45 45/104/45 57/107/45 64/127/45
f 74/128/45 76/129/45 73/130/45
f 50/131/52 46/132/52 70/133/52 74/134/52
f 48/135/53 47/136/53 71/137/53 72/138/53
f 52/139/54 25/140/54 68/141/54 76/142/54
f 27/143/55 28/92/55 65/95/55 66/144/55
f 47/136/56 50/131/56 74/134/56 71/137/56
f 49/145/57 27/146/57 66/147/57 73/148/57
f 45/149/58 52/139/58 76/142/58 69/150/58
f 25/151/59 26/152/59 67/153/59 68/154/59
f 51/93/60 48/155/60 72/156/60 75/94/60
f 26/152/61 49/145/61 73/148/61 67/153/61
f 46/157/62 45/149/62 69/150/62 70/158/62
f 66/159/45 65/160/45 73/130/45
f 65/160/45 75/161/45 74/128/45
f 73/130/45 65/160/45 74/128/45
f 75/161/45 72/162/45 71/163/45
f 71/163/45 74/128/45 75/161/45
f 74/128/45 70/164/45 69/165/45
f 76/129/45 74/128/45 69/165/45
f 76/129/45 68/166/45 73/130/45
f 68/166/45 67/167/45 73/130/45
