# Blender 3.6.2
# www.blender.org
mtllib C3_RIVER.mtl
o Плоскость
v -70.074020 255.699081 28.370522
v -24.586205 255.810837 28.390137
v -24.550037 256.112213 -19.238300
v -66.924538 256.113800 28.510948
v -60.251999 255.716705 28.425352
v -54.024231 255.878052 29.736572
v -50.277489 255.493851 28.567490
v -47.487904 256.034363 35.103935
v -44.490658 256.402466 35.501678
v -42.384354 255.994888 28.500849
v -40.405670 256.386932 28.556009
v -38.423187 256.343719 28.407652
v -36.440708 255.719864 28.611132
v -34.472443 256.006622 28.366667
v -32.308228 256.224487 28.522593
v -26.505619 255.889664 -18.879818
v -30.493267 256.309235 -18.873299
v -32.475746 255.911835 -19.135948
v -35.426315 255.791733 -19.210155
v -39.029842 256.076599 -19.115025
v -41.773979 255.755432 -19.072685
v -44.370628 256.364502 -19.101532
v -47.464966 256.105194 -19.001804
v -51.490150 255.757339 -19.075760
v -55.596802 255.983948 -19.249119
v -59.997448 255.650024 -19.101299
v -62.801006 256.085114 -19.124130
v -72.121193 256.046783 -19.147697
v -72.130760 256.005157 -14.428703
v -72.134163 255.743698 -0.039982
v -72.151421 256.036896 18.566673
v -72.110687 256.285736 23.959305
v -72.125351 256.114014 26.389565
v -24.553623 255.976105 20.539721
v -24.552132 255.788269 8.603628
v -24.543686 256.245850 -0.519047
v -24.582424 255.620438 -4.136885
v -24.533501 256.154144 -6.219225
v -70.290947 255.726471 23.897570
v -68.164711 256.246216 7.797209
v -70.010277 256.365784 2.250113
v -67.722466 256.012848 -9.759455
v -64.702682 256.017914 1.898590
v -68.160393 256.436432 -2.652412
v -69.389366 255.744019 -3.294914
v -62.532234 256.120178 22.837078
v -65.962883 256.282166 17.052664
v -63.691200 256.046143 10.442866
v -64.655411 256.404266 -5.546465
v -63.111671 255.609634 17.051527
v -61.086014 255.911484 2.988564
v -65.269028 255.908997 -10.301035
v -62.268906 256.157501 -14.102215
v -62.474564 256.039673 -4.480963
v -59.303776 256.151245 18.716820
v -59.710182 256.569977 11.808959
v -58.526207 256.414581 1.388464
v -55.232910 255.999893 -9.741676
v -56.423027 255.826202 24.392086
v -56.914764 256.417664 22.213469
v -56.294956 256.252838 5.862011
v -51.857342 255.933990 -2.705450
v -56.290535 256.550842 -5.296919
v -57.635815 256.080780 -15.487988
v -55.364685 255.848923 4.877682
v -53.736095 256.219574 -0.668180
v -53.924500 256.166046 15.743377
v -55.836548 256.247711 11.046570
v -50.649948 256.156281 -14.693035
v -52.557831 255.816422 22.489769
v -49.071167 256.218567 19.040936
v -51.730282 255.979965 10.757898
v -51.681183 256.208862 -8.823744
v -48.805542 256.412476 25.220436
v -47.672760 256.550903 13.762255
v -51.620415 255.965912 2.013861
v -46.600624 255.881073 -10.127554
v -50.094444 256.669037 6.918566
v -45.223667 256.167236 25.269300
v -45.975899 255.949371 23.487139
v -43.869453 255.770981 21.395290
v -44.441422 255.583878 15.183533
v -43.116707 255.753021 4.502928
v -46.109779 256.306458 0.251356
v -46.020626 255.775543 -3.159557
v -44.875938 255.847336 -14.697178
v -39.433701 256.323395 18.890877
v -43.459412 256.198181 -9.287373
v -41.091171 256.078033 -0.971420
v -39.282654 256.196991 12.429001
v -39.890251 255.687012 8.712866
v -42.433998 256.318542 7.113760
v -38.948479 256.178009 -11.375183
v -36.568733 256.106049 1.761751
v -36.532570 255.936676 -13.725548
v -36.377892 256.110321 10.415027
v -35.932529 256.185699 23.885279
v -35.010307 255.630096 20.970467
v -33.456039 256.501373 16.086115
v -34.611328 255.610870 9.948539
v -31.247135 255.579910 -2.818205
v -34.751240 256.371857 -3.891171
v -37.253395 255.872620 -8.269741
v -31.265270 255.959763 18.806774
v -31.437698 256.111450 -8.519936
v -30.909801 255.970551 12.646634
v -32.374374 256.390625 9.887740
v -28.958797 256.195007 2.576151
v -26.932106 256.291962 20.736971
v -28.489178 256.181458 -3.375948
v -31.659645 255.996368 -16.294434
v -47.382515 201.927628 37.260994
v -46.353111 201.720856 37.530647
v -44.361053 202.272141 37.595257
v -47.789806 254.073883 36.223511
v -47.365715 252.226440 36.399216
v -47.360184 242.535172 37.333839
v -44.362896 221.755173 37.607147
v -44.367085 243.200577 37.609291
v -44.359467 252.421417 36.799683
v -44.797638 254.455780 36.562950
v -47.310875 245.321518 37.541046
v -47.379417 228.515472 37.412506
v -47.370033 214.900482 37.512028
v -54.907814 253.744263 30.838297
v -51.161068 253.360062 29.669212
v -48.371483 253.900574 36.205658
v -55.041664 247.460175 32.876781
v -51.294922 247.075974 31.707699
v -48.505337 247.616486 38.244141
v -55.204376 242.563675 34.472721
v -51.457634 242.179474 33.303638
v -48.668049 242.719986 39.840084
v -52.970657 232.075302 36.280960
v -49.223915 231.691101 35.111877
v -50.871231 233.000504 34.698254
v -48.081642 233.541016 41.234695
v -43.861294 253.738647 36.763580
v -41.754990 253.331055 29.762753
v -42.427727 247.317429 39.833534
v -40.321423 246.909836 32.832706
v -40.939178 241.546829 36.007622
v -43.045486 241.954422 43.008453
v -39.736408 247.040451 32.563553
v -37.757725 247.432495 32.618713
v -41.925507 233.278381 40.913967
v -39.946823 233.670425 40.969128
v -41.225830 225.983749 33.514069
v -43.332134 226.391342 40.514896
v -51.186340 221.735443 34.226776
v -47.439598 221.351242 33.057693
v -38.498638 249.785522 34.965599
v -36.516159 249.742310 34.817242
v -39.778595 242.669998 40.620621
v -37.796112 242.626785 40.472267
v -53.191849 244.754181 39.617085
v -49.445107 244.369980 38.448002
v -52.880966 240.736847 43.189243
v -49.134224 240.352646 42.020161
v -53.122276 236.413620 46.816963
v -49.375534 236.029419 45.647881
vn -0.0778 0.9947 -0.0678
vn 0.1035 0.9807 0.1658
vn -0.1735 0.9072 -0.3833
vn 0.1821 0.9802 -0.0782
vn -0.0697 0.9967 0.0428
vn -0.0020 0.9999 -0.0124
vn -0.0968 0.9890 -0.1117
vn 0.1403 0.9897 0.0300
vn 0.1403 0.9896 0.0300
vn -0.2168 0.9760 -0.0193
vn -0.1932 0.9763 0.0975
vn 0.2229 0.9747 0.0146
vn -0.1140 0.9920 -0.0548
vn 0.0734 0.9957 0.0560
vn 0.0551 0.9953 0.0793
vn -0.1083 0.9909 -0.0794
vn -0.0446 0.9951 -0.0880
vn 0.0112 0.9994 -0.0324
vn -0.1547 0.9877 0.0212
vn -0.1336 0.9876 0.0830
vn 0.2082 0.9708 -0.1192
vn -0.2836 0.9556 0.0802
vn 0.0012 0.9997 0.0254
vn -0.0776 0.9936 0.0818
vn 0.1171 0.9925 0.0337
vn -0.0526 0.9972 -0.0537
vn 0.0272 0.9992 0.0295
vn 0.3435 0.9212 -0.1826
vn -0.0227 0.9980 -0.0588
vn -0.0233 0.9975 0.0662
vn -0.0433 0.9976 0.0536
vn 0.0941 0.9951 -0.0296
vn 0.0187 0.9942 -0.1060
vn -0.1352 0.9908 0.0064
vn 0.0458 0.9989 0.0014
vn -0.0845 0.9937 -0.0742
vn 0.0534 0.9982 0.0277
vn -0.0121 0.9984 0.0557
vn -0.0080 0.9998 -0.0186
vn 0.0212 0.9995 -0.0250
vn -0.0614 0.9975 -0.0338
vn 0.0853 0.9964 0.0010
vn 0.0342 0.9971 -0.0673
vn 0.0341 0.9971 -0.0673
vn -0.0314 0.9986 -0.0433
vn 0.3696 0.9287 -0.0318
vn 0.0608 0.9964 -0.0598
vn 0.0607 0.9964 -0.0598
vn -0.0130 0.9997 0.0195
vn -0.0540 0.9984 -0.0184
vn -0.2028 0.9752 0.0886
vn -0.4011 0.9160 -0.0065
vn -0.0887 0.9960 0.0109
vn 0.1366 0.9906 0.0013
vn 0.0418 0.9991 -0.0019
vn 0.0418 0.9991 -0.0020
vn 0.1009 0.9142 0.3925
vn 0.0869 0.9950 -0.0486
vn 0.0646 0.9979 -0.0089
vn -0.1406 0.1604 0.9770
vn 0.0399 0.0874 0.9954
vn -0.1405 0.1604 0.9770
vn -0.0570 0.9977 -0.0371
vn 0.0935 0.9941 0.0548
vn 0.0232 0.9966 -0.0792
vn 0.1334 0.9908 0.0214
vn 0.0542 0.9975 0.0461
vn -0.1074 0.9912 -0.0767
vn 0.2230 0.9579 -0.1810
vn 0.0099 0.9893 -0.1454
vn 0.0098 0.9893 -0.1454
vn -0.0135 0.9839 -0.1781
vn -0.0075 0.9792 0.2027
vn 0.2282 0.9676 -0.1082
vn -0.1111 0.9922 -0.0568
vn -0.1111 0.9922 -0.0567
vn -0.0291 0.9971 -0.0699
vn 0.2248 0.9658 -0.1296
vn -0.0628 0.9980 -0.0036
vn 0.0149 0.9881 -0.1534
vn -0.1702 0.9829 0.0696
vn -0.1566 0.9845 0.0787
vn -0.1566 0.9845 0.0788
vn -0.1200 0.9927 -0.0142
vn 0.0679 0.9973 0.0291
vn -0.1311 0.9913 0.0124
vn 0.0654 0.9979 -0.0002
vn 0.1881 0.9764 0.1064
vn 0.0005 0.9935 -0.1135
vn 0.0347 0.9988 -0.0344
vn 0.2018 0.9794 -0.0038
vn 0.2952 0.9529 0.0691
vn 0.2920 0.9553 -0.0463
vn 0.0929 0.9905 0.1015
vn 0.0784 0.9969 0.0100
vn 0.1213 0.9923 -0.0258
vn -0.1682 0.9716 -0.1665
vn -0.0646 -0.0001 0.9979
vn -0.0302 -0.0006 0.9995
vn 0.1535 0.9877 -0.0305
vn -0.0159 0.9940 -0.1081
vn -0.2001 0.9794 0.0283
vn 0.0734 0.9837 -0.1639
vn -0.0402 0.9990 -0.0182
vn 0.0650 0.9979 0.0025
vn 0.0534 0.9985 0.0128
vn -0.0357 0.9925 0.1171
vn 0.0146 0.9998 -0.0152
vn 0.1849 0.9509 0.2481
vn -0.0753 0.9972 -0.0026
vn -0.0564 0.9975 -0.0426
vn 0.0599 0.9971 0.0475
vn 0.0600 0.9971 0.0475
vn 0.0181 0.9833 0.1812
vn -0.2281 0.9406 -0.2515
vn -0.3067 0.9032 0.3003
vn 0.1949 0.9772 0.0846
vn 0.2705 0.9627 -0.0064
vn -0.1391 0.9603 -0.2417
vn 0.2862 0.9501 0.1244
vn -0.1272 0.9758 -0.1781
vn -0.0778 0.9946 -0.0689
vn -0.1147 0.9903 0.0789
vn -0.1839 0.9586 -0.2174
vn -0.1298 0.9913 -0.0224
vn 0.0099 0.9999 0.0116
vn -0.0257 0.9935 -0.1106
vn -0.4920 0.8582 -0.1464
vn -0.0895 0.9951 -0.0411
vn 0.0696 0.9862 -0.1499
vn 0.0087 0.9999 0.0088
vn -0.0042 0.9998 0.0188
vn -0.0041 0.9998 0.0188
vn -0.0181 0.9940 -0.1080
vn 0.0053 0.9988 0.0487
vn 0.0187 0.9997 -0.0157
vn 0.1229 0.9874 -0.0996
vn -0.3797 0.9211 0.0859
vn -0.2593 0.9544 0.1479
vn 0.1359 0.9906 -0.0135
vn 0.0591 0.9931 -0.1017
vn -0.0074 0.9995 -0.0297
vn -0.0074 0.9995 -0.0298
vn 0.1185 0.9654 0.2324
vn 0.0119 0.9994 -0.0334
vn -0.0328 0.9995 -0.0020
vn 0.0644 0.9979 -0.0089
vn -0.0176 0.9998 -0.0032
vn -0.0013 0.9999 -0.0148
vn -0.1457 0.9460 0.2897
vn -0.0779 0.9967 -0.0227
vn 0.0817 0.9966 -0.0062
vn -0.0318 0.9854 -0.1674
vn -0.0215 0.9636 0.2664
vn 0.0668 0.9977 0.0095
vn 0.0668 0.9977 0.0096
vn 0.0307 0.9985 0.0457
vn 0.0306 0.9985 0.0458
vn -0.0399 0.9545 0.2955
vn -0.1308 0.9863 0.1009
vn -0.1640 0.9853 0.0474
vn -0.1006 0.9842 -0.1459
vn 0.0521 0.9973 0.0521
vn 0.1398 0.9888 0.0522
vn 0.0522 0.9973 0.0521
vn 0.0185 0.9998 0.0063
vn 0.2294 0.9723 0.0441
vn 0.0257 0.9996 0.0124
vn -0.0888 0.9960 -0.0050
vn -0.2998 0.8781 -0.3729
vn -0.1505 0.9805 -0.1268
vn 0.0581 0.9928 -0.1048
vn -0.1505 0.9804 -0.1268
vn -0.6091 0.6005 0.5180
vn -0.4362 0.8848 0.1642
vn -0.0949 0.9954 -0.0158
vn 0.0706 0.9957 0.0596
vn -0.1475 0.4284 0.8915
vn -0.0754 -0.0726 0.9945
vn -0.0929 0.0057 0.9957
vn -0.0482 0.0073 0.9988
vn -0.1078 -0.0191 0.9940
vn -0.0796 0.9910 0.1072
vn 0.2247 0.9645 0.1390
vn 0.1439 0.9896 0.0091
vn -0.1052 0.9917 0.0739
vn 0.1057 0.9943 0.0131
vn 0.0012 0.9982 0.0607
vn -0.0581 0.9903 -0.1264
vn 0.0200 0.9995 -0.0239
vn -0.0316 0.9986 0.0421
vn 0.1276 0.9908 0.0450
vn 0.0655 0.9944 0.0833
vn -0.1067 0.9940 0.0239
vn 0.2346 0.9643 0.1229
vn 0.0256 0.9969 0.0741
vn -0.0207 0.9997 -0.0131
vn 0.1393 0.9896 -0.0370
vn -0.1390 0.9900 -0.0251
vn -0.0210 0.9996 0.0182
vn -0.1672 0.5003 0.8496
vn -0.1293 0.0763 0.9887
vn 0.0349 0.9992 -0.0182
vn 0.0459 0.9989 -0.0020
vn -0.8133 0.4948 0.3062
vn 0.3118 0.3308 0.8907
vn -0.9146 0.1423 0.3786
vn 0.3120 0.2871 0.9056
vn -0.9134 0.1533 0.3771
vn 0.3120 0.2850 0.9063
vn 0.3112 0.2254 0.9232
vn -0.9198 0.0009 0.3925
vn 0.9076 0.3346 0.2536
vn 0.9106 0.3252 0.2550
vn 0.9569 0.0582 0.2845
vn -0.1020 0.3858 0.9169
vn -0.1283 0.5293 0.8387
vn 0.9546 -0.0642 0.2909
vn 0.2818 -0.1399 0.9492
vn 0.0682 0.7051 0.7059
vn 0.0723 0.6126 0.7871
vn -0.2866 -0.6481 -0.7055
vn -0.2865 -0.6489 -0.7049
vn -0.2931 -0.6049 -0.7404
vt 0.207860 0.803183
vt 0.237048 0.857044
vt 0.173998 0.854933
vt 0.579816 0.814737
vt 0.653608 0.851762
vt 0.596551 0.851659
vt 0.681634 0.856891
vt 0.242260 0.720898
vt 0.227173 0.657239
vt 0.290589 0.620143
vt 0.293141 0.707750
vt 0.625235 0.629743
vt 0.681875 0.670459
vt 0.583006 0.703405
vt 0.372931 0.577795
vt 0.293986 0.552562
vt 0.315911 0.482313
vt 0.415732 0.516925
vt 0.585679 0.621768
vt 0.618512 0.544509
vt 0.554146 0.351042
vt 0.585460 0.312094
vt 0.590551 0.400306
vt 0.259555 0.155579
vt 0.225200 0.232112
vt 0.137750 0.254372
vt 0.170360 0.174358
vt 0.535586 0.637116
vt 0.499704 0.699826
vt 0.292414 0.427349
vt 0.261013 0.355953
vt 0.330516 0.308733
vt 0.350575 0.384316
vt 0.539539 0.175196
vt 0.518651 0.239365
vt 0.511325 0.171701
vt 0.531798 0.281116
vt 0.468530 0.310881
vt 0.512266 0.432258
vt 0.510032 0.777951
vt 0.474287 0.855124
vt 0.404955 0.275029
vt 0.444770 0.595310
vt 0.475463 0.744289
vt 0.000000 0.315524
vt 0.088642 0.337200
vt 0.121147 0.431857
vt 0.057110 0.469737
vt 0.470680 0.403416
vt 0.461926 0.456641
vt 0.425567 0.479527
vt 0.410871 0.714391
vt 0.390550 0.791865
vt 0.026608 0.239193
vt 0.426244 0.173274
vt 0.385605 0.219545
vt 0.396126 0.073014
vt 0.107377 0.660814
vt 0.098539 0.728909
vt 0.063418 0.721151
vt 0.039520 0.628585
vt 0.353504 0.853501
vt 0.295829 0.854567
vt 0.307902 0.791798
vt 0.141525 0.783336
vt 0.138568 0.645564
vt 0.570553 0.172959
vt 0.647543 0.284448
vt 0.374810 0.245070
vt 0.434959 0.854524
vt 0.227079 0.497451
vt 0.233642 0.423209
vt 0.240357 0.511555
vt 0.537509 0.438949
vt 0.569623 0.439804
vt 0.509532 0.556172
vt 0.313166 0.172329
vt 0.280546 0.259354
vt 0.218221 0.263297
vt 0.396745 0.363984
vt 0.697608 0.707194
vt 0.709279 0.608727
vt 0.725269 0.586138
vt 0.719573 0.716688
vt 0.183983 0.313374
vt 0.178208 0.412284
vt 0.195145 0.561507
vt 0.681085 0.174866
vt 0.681569 0.287279
vt 0.129399 0.337231
vt 0.158437 0.538604
vt 0.374151 0.626650
vt 0.353168 0.078717
vt 0.334340 0.220239
vt 0.029712 0.175142
vt 0.074854 0.173123
vt 0.106660 0.554210
vt 0.030695 0.549168
vt 0.000292 0.788013
vt 0.000381 0.203500
vt 0.000609 0.238297
vt 0.681570 0.458206
vt 0.698176 0.373212
vt 0.713743 0.285576
vt 0.692228 0.182250
vt 0.703130 0.012528
vt 0.133898 0.855251
vt 0.568121 0.855428
vt 0.525858 0.856493
vt 0.365857 0.726428
vt 0.681119 0.640651
vt 0.483002 0.174602
vt 0.454619 0.172476
vt 0.000434 0.855588
vt 0.263717 0.590963
vt 0.057191 0.619370
vt 0.000216 0.581975
vt 0.807866 0.376079
vt 0.818371 0.454447
vt 0.807866 0.470908
vt 0.681875 0.000795
vt 0.691000 0.000000
vt 0.704775 0.569883
vt 0.397841 0.854924
vt 0.681739 0.588831
vt 0.681875 0.762335
vt 0.693942 0.732325
vt 0.715124 0.744501
vt 0.703848 0.774237
vt 0.990894 0.333046
vt 0.890121 0.349214
vt 0.891819 0.314354
vt 0.992593 0.298186
vt 0.807866 0.494168
vt 0.775631 0.504134
vt 0.759989 0.473533
vt 0.792225 0.463567
vt 0.896122 0.219994
vt 0.996895 0.203826
vt 0.740730 0.381302
vt 0.772965 0.371336
vt 0.899226 0.146361
vt 1.000000 0.130193
vt 0.725374 0.309530
vt 0.757610 0.299564
vt 0.725269 0.154303
vt 0.757504 0.144337
vt 0.890121 0.016167
vt 0.990894 -0.000000
vt 0.894635 0.948319
vt 0.790227 0.938681
vt 0.781456 0.897035
vt 0.885865 0.906673
vt 0.759577 0.796708
vt 0.863986 0.806346
vt 0.725269 0.714295
vt 0.829677 0.723933
vt 0.884645 0.375126
vt 0.869597 0.370709
vt 0.875072 0.230215
vt 0.890120 0.234632
vt 0.869597 -0.000000
vt 0.884645 0.004417
vt 0.790227 0.504134
vt 0.894635 0.513772
vt 0.775631 0.009966
vt 0.807866 -0.000000
vt 0.481232 0.080830
vt 0.509615 0.082956
vt 0.462155 0.000000
vt 0.490538 0.002126
vt 0.869597 0.371044
vt 0.813349 0.376079
vt 0.809415 0.162762
vt 0.865662 0.157727
vt 0.807866 0.085683
vt 0.864114 0.080648
vt 0.813349 0.005035
vt 0.869597 0.000000
s 0
usemtl Материал.223
f 64/1/1 25/2/1 26/3/1
f 111/4/2 16/5/2 17/6/2
f 3/7/3 16/5/3 111/4/3
f 58/8/4 63/9/4 62/10/5 73/11/5
f 110/12/6 38/13/6 105/14/6
f 84/15/7 76/16/7 78/17/8 83/18/9
f 110/12/10 101/19/10 108/20/10
f 101/19/11 110/12/11 105/14/11
f 99/21/12 104/22/12 106/23/12
f 6/24/13 59/25/14 46/26/15 5/27/16
f 102/28/17 105/14/17 103/29/17
f 72/30/18 67/31/18 71/32/19 75/33/19
f 14/34/20 97/35/20 13/36/20
f 98/37/21 87/38/21 97/35/21
f 99/21/22 96/39/22 98/37/22
f 95/40/23 111/4/23 20/41/23
f 97/35/24 87/38/24 81/42/24
f 89/43/25 103/29/25 93/44/25
f 31/45/26 47/46/26 48/47/27 40/48/27
f 90/49/28 91/50/28 92/51/28
f 88/52/29 93/44/29 86/53/29
f 47/46/30 31/45/30 39/54/31 46/26/31
f 10/55/32 79/56/32 9/57/32
f 49/58/33 52/59/33 42/60/34 45/61/34
f 89/43/35 88/52/35 84/15/35
f 23/62/36 24/63/36 69/64/37 86/53/37
f 58/8/38 53/65/38 52/59/39 54/66/39
f 104/22/40 97/35/40 15/67/41 109/68/41
f 80/69/42 81/42/42 71/32/42
f 93/44/43 95/40/44 21/70/45 86/53/45
f 61/71/46 68/72/47 72/30/48 65/73/46
f 64/1/49 58/8/50 73/11/50 69/64/49
f 75/33/51 78/17/51 72/30/51
f 72/30/52 78/17/52 76/16/52
f 100/74/53 107/75/53 108/20/53 94/76/53
f 7/77/54 70/78/54 60/79/54
f 90/49/55 92/51/56 75/33/57 82/80/57
f 7/77/58 59/25/58 6/24/58
f 67/31/59 68/72/59 60/79/59
f 116/81/60 122/82/61 119/83/61 120/84/62
f 46/26/63 60/79/63 55/85/63
f 68/72/64 56/86/64 55/85/64
f 57/87/65 62/10/65 54/66/65
f 2/88/66 34/89/66 109/68/67 15/67/67
f 46/26/68 55/85/68 50/90/68
f 100/74/69 96/39/69 99/21/70 106/23/71
f 82/80/72 71/32/73 81/42/73 87/38/72
f 50/90/74 47/46/74 46/26/74
f 51/91/75 48/47/76 56/86/77 61/71/77
f 54/66/78 52/59/78 49/58/78
f 76/16/79 84/15/80 85/92/80 62/10/79
f 50/90/81 55/85/81 56/86/82 48/47/83
f 8/93/84 9/57/84 79/56/85 74/94/85
f 1/95/86 4/96/86 39/54/86
f 40/48/87 43/97/87 41/98/87
f 101/19/88 102/28/88 94/76/89 108/20/89
f 42/60/90 52/59/90 29/99/90
f 1/95/91 39/54/91 33/100/91
f 39/54/92 32/101/92 33/100/92
f 39/54/93 31/45/93 32/101/93
f 107/75/94 106/23/94 35/102/95 108/20/95
f 78/17/96 75/33/97 92/51/97 83/18/96
f 123/103/98 118/104/98 119/83/98
f 124/105/99 114/106/99 118/104/99
f 27/107/100 53/65/101 64/1/101 26/3/100
f 18/108/102 111/4/102 17/6/102
f 20/41/103 111/4/103 19/109/103
f 111/4/104 18/108/104 19/109/104
f 69/64/105 73/11/105 77/110/106 86/53/106
f 93/44/107 103/29/107 105/14/108 111/4/108
f 110/12/109 37/111/109 38/13/109
f 109/68/110 106/23/110 104/22/110
f 46/26/111 39/54/111 4/96/112 5/27/113
f 98/37/114 104/22/114 99/21/114
f 98/37/115 97/35/115 104/22/115
f 106/23/116 107/75/116 100/74/116
f 101/19/117 105/14/117 102/28/117
f 96/39/118 100/74/118 94/76/118
f 95/40/119 93/44/119 111/4/119
f 12/112/120 13/36/120 97/35/120
f 92/51/121 94/76/121 83/18/121
f 102/28/122 103/29/122 89/43/122
f 95/40/123 20/41/123 21/70/123
f 10/55/124 11/113/124 97/35/124
f 87/38/125 90/49/125 82/80/125
f 93/44/126 88/52/126 89/43/126
f 80/69/127 79/56/127 81/42/127
f 85/92/128 84/15/128 88/52/128
f 77/110/129 88/52/129 86/53/129
f 74/94/130 79/56/130 80/69/130
f 29/99/131 52/59/132 27/107/133 28/114/131
f 97/35/134 81/42/134 79/56/135 10/55/135
f 34/89/136 35/102/136 106/23/137 109/68/137
f 7/77/138 8/93/138 74/94/138
f 7/77/139 74/94/139 70/78/139
f 62/10/140 66/115/140 76/16/140
f 24/63/141 25/2/142 64/1/143 69/64/141
f 60/79/144 70/78/144 71/32/144
f 60/79/145 71/32/145 67/31/145
f 72/30/146 76/16/146 65/73/146
f 68/72/147 67/31/147 72/30/147
f 38/13/148 3/7/148 111/4/149 105/14/149
f 7/77/150 60/79/150 59/25/150
f 55/85/151 60/79/151 68/72/151
f 56/86/152 68/72/152 61/71/152
f 57/87/153 66/115/153 62/10/153
f 46/26/154 59/25/154 60/79/154
f 85/92/155 77/110/156 73/11/157 62/10/158
f 54/66/159 62/10/159 63/9/159
f 61/71/160 57/87/160 51/91/160
f 51/91/161 57/87/161 54/66/161
f 54/66/162 63/9/162 58/8/162
f 44/116/163 43/97/164 54/66/164 49/58/165
f 53/65/166 58/8/166 64/1/166
f 47/46/167 50/90/167 48/47/167
f 51/91/168 54/66/168 43/97/168
f 52/59/169 53/65/169 27/107/169
f 44/116/170 49/58/170 45/61/170
f 30/117/171 41/98/172 43/97/172 45/61/173
f 43/118/174 44/119/174 45/120/174
f 30/117/175 40/48/175 41/98/175
f 30/117/176 31/45/176 40/48/176
f 42/60/177 30/117/177 45/61/177
f 112/121/178 113/122/178 114/106/178
f 122/82/179 117/123/179 119/83/179
f 117/123/180 123/103/180 119/83/180
f 123/103/181 124/105/181 118/104/181
f 124/105/182 112/121/182 114/106/182
f 22/124/183 23/62/183 86/53/183
f 22/124/184 86/53/184 21/70/184
f 37/111/185 110/12/185 108/20/185
f 97/35/186 14/34/186 15/67/186
f 98/37/187 96/39/187 90/49/187 87/38/187
f 94/76/188 92/51/188 91/50/188 96/39/188
f 91/50/189 90/49/189 96/39/189
f 97/35/190 11/113/190 12/112/190
f 94/76/191 102/28/191 89/43/191 83/18/191
f 65/73/192 66/115/192 57/87/192 61/71/192
f 84/15/193 83/18/193 89/43/193
f 88/52/194 77/110/194 85/92/194
f 71/32/195 82/80/195 75/33/195
f 66/115/196 65/73/196 76/16/196
f 36/125/197 37/111/197 108/20/197 35/102/197
f 74/94/198 80/69/198 71/32/199 70/78/199
f 29/99/200 30/117/200 42/60/200
f 8/126/201 115/127/201 121/128/201 9/129/201
f 116/81/202 120/84/202 121/128/202 115/127/202
f 51/91/203 43/97/203 40/48/204 48/47/204
f 8/130/205 7/131/205 126/132/205 127/133/205
f 7/134/206 6/135/206 125/136/206 126/137/206
f 127/133/207 126/132/207 129/138/207 130/139/207
f 126/137/208 125/136/208 128/140/208 129/141/208
f 130/139/209 129/138/209 132/142/209 133/143/209
f 129/141/210 128/140/210 131/144/210 132/145/210
f 132/145/211 131/144/211 134/146/211 135/147/211
f 133/143/212 132/142/212 136/148/212 137/149/212
f 10/150/213 9/151/213 138/152/213 139/153/213
f 139/153/214 138/152/214 140/154/214 141/155/214
f 141/155/215 140/154/215 143/156/215 142/157/215
f 11/158/216 10/159/216 144/160/216 145/161/216
f 145/161/217 144/160/217 146/162/217 147/163/217
f 142/157/218 143/156/218 149/164/218 148/165/218
f 135/147/219 134/146/219 150/166/219 151/167/219
f 12/112/220 11/113/220 152/168/220 153/169/220
f 153/169/221 152/168/221 154/170/221 155/171/221
f 6/172/222 7/173/222 157/174/222 156/175/222
f 156/175/223 157/174/223 159/176/223 158/177/223
f 158/177/224 159/176/224 161/178/224 160/179/224
