# Blender 3.6.2
# www.blender.org
mtllib C3_Stone1.mtl
o Куб.004
v -4.981094 226.169785 0.713518
v -6.085951 227.100159 1.290677
v -6.002664 225.695389 1.645611
v -4.422454 224.818481 2.065536
v -3.726078 226.114731 0.424635
v -4.446684 225.454987 0.718112
v -3.877241 224.871445 1.304205
v -6.079715 225.703033 3.126326
v -6.128902 225.606949 2.606514
v -5.531532 226.154449 3.880532
v -4.909236 224.941452 2.695328
v -4.438426 224.929779 3.357266
v -3.514073 224.527725 2.672849
v -4.177316 225.481094 3.978372
v -3.750342 226.072769 4.172147
v -5.251336 227.012283 0.712066
v -5.222922 227.275208 0.760934
v -6.324579 226.785309 2.436489
v -6.074124 228.022629 2.231240
v -5.672586 226.825516 0.991095
v -5.529022 227.562454 1.223027
v -5.706817 228.076477 1.895400
v -4.923077 228.065598 1.514718
v -3.809336 226.729462 0.486752
v -3.990478 227.328674 0.716538
v -4.637391 228.371597 2.004053
v -4.007068 228.080276 1.504625
v -6.063226 226.913879 3.563510
v -6.063846 227.865906 2.904015
v -5.844399 226.845505 3.850684
v -5.497232 227.384735 3.866808
v -5.517204 228.245392 3.025569
v -4.861677 227.646988 3.835735
v -4.034871 227.972015 3.352962
v -4.828988 226.825516 4.084544
v -3.705531 227.030426 3.935926
v -4.808057 228.430359 2.747683
v -4.828988 228.155624 3.364851
v -3.276178 224.831284 1.167958
v -2.753034 224.417053 1.943543
v -2.151926 224.742874 1.430109
v -2.111614 225.675323 0.782857
v -2.744030 225.353638 0.753047
v -2.247823 226.679047 0.895547
v -1.452998 224.903976 2.269960
v -1.791799 225.271255 1.380996
v -1.893765 226.132889 1.122159
v -1.296793 226.109100 1.935619
v -3.442153 224.877213 3.758058
v -2.570242 224.535675 2.697312
v -2.479918 224.909363 3.646575
v -2.904172 224.934601 3.872521
v -2.488483 226.762039 3.715310
v -2.117373 225.536728 3.880168
v -1.867406 225.336594 3.427261
v -2.108876 225.961487 3.867530
v -1.310134 225.665222 3.030725
v -1.229663 226.437027 2.719587
v -1.366597 226.447052 3.139102
v -2.935450 227.185165 0.759551
v -2.817631 227.541962 1.197933
v -2.922937 227.944946 1.825059
v -1.944104 227.110077 1.415364
v -1.392773 226.605316 1.949627
v -2.913125 227.939941 2.457944
v -1.877013 227.309860 2.626657
v -2.100829 227.253845 3.238857
vn -0.4458 -0.8124 -0.3758
vn 0.5000 0.8565 0.1279
vn 0.0820 -0.7836 -0.6158
vn -0.4547 -0.8769 -0.1562
vn 0.5047 0.3751 0.7776
vn -0.1985 0.8789 -0.4338
vn -0.2952 0.7198 -0.6283
vn -0.2883 0.7159 -0.6360
vn -0.9675 0.1435 0.2080
vn 0.1645 0.6643 0.7291
vn 0.1628 0.4481 0.8790
vn 0.1552 -0.2157 -0.9640
vn -0.4338 -0.7206 -0.5409
vn -0.9700 -0.1445 -0.1957
vn 0.2498 0.8331 -0.4934
vn 0.3401 0.8531 0.3957
vn -0.0051 -0.4018 -0.9157
vn 0.8474 -0.1669 -0.5041
vn 0.9904 -0.1321 -0.0415
vn -0.6640 -0.2199 -0.7146
vn 0.2943 0.1460 -0.9445
vn 0.7479 0.2258 -0.6242
vn 0.1426 0.7285 -0.6701
vn 0.3581 -0.9331 -0.0343
vn 0.0043 -0.9880 0.1544
vn 0.2069 0.2485 0.9463
vn -0.2411 -0.8380 0.4895
vn -0.4568 -0.8502 0.2617
vn 0.9678 0.1918 -0.1631
vn -0.2397 -0.9653 -0.1036
vn -0.2282 -0.1767 -0.9575
vn -0.1672 -0.1958 0.9663
vn -0.0690 -0.3423 0.9370
vn -0.0708 0.2954 -0.9527
vn -0.3899 0.3447 -0.8539
vn -0.0404 0.7102 -0.7028
vn -0.0194 0.8528 -0.5219
vn -0.6583 0.3063 -0.6876
vn -0.1483 0.1999 0.9685
vn 0.4995 -0.7807 0.3756
vn -0.6732 0.4151 0.6119
vn -0.9797 0.1859 -0.0748
vn 0.2119 0.8901 0.4034
vn -0.2499 0.6711 0.6980
vn -0.0798 0.9117 0.4031
vn -0.5881 0.7857 0.1920
vn -0.5756 0.5803 -0.5761
vn 0.0350 -0.9425 0.3323
vn 0.7017 -0.5232 -0.4836
vn 0.8677 -0.0460 -0.4950
vn -0.6146 0.4989 0.6110
vn 0.7062 0.1729 -0.6866
vn 0.1416 -0.1049 0.9844
vn 0.6941 -0.1292 0.7082
vn 0.9505 0.0257 0.3096
vn 0.5674 0.7859 -0.2459
vn 0.6703 -0.5837 0.4582
vn 0.0577 -0.9744 0.2172
vn 0.8749 -0.0031 0.4842
vn 0.3812 -0.5079 0.7725
vn 0.5962 -0.5591 0.5761
vn 0.7423 0.6533 -0.1489
vn 0.2605 0.5670 0.7815
vn -0.3779 -0.6280 0.6803
vn 0.7406 0.6080 0.2860
vn -0.2142 -0.9337 -0.2869
vn 0.4361 -0.5258 -0.7303
vn -0.0737 -0.6706 -0.7382
vn -0.1878 -0.0047 -0.9822
vn 0.0892 0.3800 -0.9207
vn 0.2025 0.9354 -0.2900
vn 0.2831 0.9033 0.3224
vn -0.5539 -0.2476 -0.7950
vn 0.2432 0.1214 -0.9623
vn 0.7831 0.2005 -0.5886
vn -0.9758 -0.0952 0.1970
vn -0.7335 -0.2497 0.6321
vn -0.0510 0.0431 0.9978
vn -0.2690 0.9564 -0.1135
vn -0.2251 -0.0599 0.9725
vn -0.2372 0.9658 -0.1046
vn 0.2451 0.9694 -0.0092
vn -0.2823 -0.9561 0.0789
vn 0.8046 0.5924 -0.0410
vn 0.4871 0.5573 -0.6725
vt 0.085373 0.264930
vt 0.126223 0.166939
vt 0.221631 0.188989
vt 0.556534 0.358667
vt 0.499824 0.396111
vt 0.380187 0.298163
vt 0.439411 0.282233
vt 0.084724 0.117858
vt 0.003471 0.115283
vt 0.051885 0.011333
vt 0.138371 0.028638
vt 0.329357 0.364004
vt 0.237366 0.384549
vt 0.296648 0.220076
vt 0.596671 0.453908
vt 0.619880 0.318994
vt 0.678436 0.371948
vt 0.259572 0.655374
vt 0.196714 0.662973
vt 0.181156 0.571993
vt 0.113383 0.633391
vt 0.080566 0.690841
vt 0.467761 0.860748
vt 0.556560 0.784783
vt 0.589862 0.876976
vt 0.506178 0.145541
vt 0.487723 0.061642
vt 0.556086 0.057912
vt 0.611055 0.185277
vt 0.620051 0.074180
vt 1.000000 0.279120
vt 0.927083 0.154288
vt 0.974585 0.155439
vt 0.088022 0.352059
vt 0.419080 0.928736
vt 0.329356 0.822934
vt 0.385258 0.770808
vt 0.239380 0.743384
vt 0.294572 0.820870
vt 0.234755 0.871916
vt -0.000001 0.251397
vt 0.776633 0.111987
vt 0.824436 -0.000000
vt 0.888702 0.081497
vt 0.865248 0.171905
vt 0.715446 0.031669
vt 0.693346 0.107969
vt 0.162713 0.484051
vt 0.125059 0.441261
vt 0.879600 0.325237
vt 0.867737 0.244582
vt 0.789427 0.249120
vt 0.178103 0.891800
vt 0.139115 0.800429
vt 0.908468 0.775463
vt 0.833291 0.790654
vt 0.853200 0.661323
vt 0.912457 0.685913
vt 0.189403 0.000001
vt 0.236583 0.079305
vt 0.679518 0.197423
vt 0.329356 0.527179
vt 0.431347 0.479089
vt 0.487556 0.550731
vt 0.398259 0.573400
vt 0.349863 0.644636
vt 0.428461 0.742731
vt 0.751821 0.159503
vt 0.553233 0.543803
vt 0.521571 0.687068
vt 0.770237 0.536502
vt 0.750996 0.576916
vt 0.647175 0.520840
vt 0.715219 0.479087
vt 0.087284 0.837125
vt 0.055540 0.694460
vt 0.053998 0.586447
vt 0.035441 0.643545
vt 0.621205 0.755162
vt 0.572553 0.749298
vt 0.597301 0.665208
vt 0.647173 0.728378
vt 0.730424 0.701452
vt 0.761409 0.624973
vt 0.557402 0.925581
vt 0.417104 0.073744
vt 0.442633 -0.000000
vt 0.563442 -0.000000
vt 0.199443 0.484049
vt 0.261361 0.519981
vt 0.177168 0.520815
vt 0.868146 0.582922
vt 0.929875 0.049199
vt 0.634674 0.854049
vt 0.688736 0.660023
vt 0.653319 0.673604
vt 0.719547 0.780658
vt 0.647175 0.791998
vt 0.672172 0.827407
vt 0.396129 0.426804
vt 0.343088 0.335201
vt 0.679518 0.217501
vt 0.559972 0.479088
vt 0.038301 0.855597
vt -0.000002 0.728319
vt 0.353113 0.112177
vt 0.329359 0.195447
vt 0.072811 0.424501
vt 0.964192 0.334677
vt 0.615856 0.608656
vt 0.294572 0.595993
vt 0.329357 0.162078
vt 0.819864 0.334677
s 0
usemtl Материал.222
f 6/1/1 7/2/1 4/3/1
f 67/4/2 66/5/2 62/6/2 65/7/2
f 39/8/3 43/9/3 41/10/3 40/11/3
f 9/12/4 3/13/4 4/3/4 11/14/4
f 59/15/5 67/4/5 53/16/5 56/17/5
f 26/18/6 23/19/6 22/20/6
f 22/20/7 23/19/7 21/21/7
f 23/19/8 17/22/8 21/21/8
f 18/23/9 28/24/9 29/25/9
f 34/26/10 38/27/10 33/28/10
f 36/29/11 34/26/11 33/28/11 35/30/11
f 5/31/12 42/32/12 43/33/12
f 6/1/13 4/3/13 3/13/13 1/34/13
f 2/35/14 3/36/14 9/37/14 18/23/14
f 27/38/15 62/39/15 61/40/15
f 67/4/16 65/7/16 34/26/16
f 6/1/17 5/41/17 43/9/17
f 48/42/18 45/43/18 46/44/18 47/45/18
f 57/46/19 45/43/19 48/42/19 58/47/19
f 2/48/20 20/49/20 3/13/20
f 60/50/21 44/51/21 42/32/21
f 44/51/22 63/52/22 47/45/22
f 61/40/23 60/53/23 25/54/23 27/38/23
f 41/55/24 45/56/24 50/57/24 40/58/24
f 40/11/25 50/59/25 13/60/25
f 36/29/26 15/61/26 56/17/26 53/16/26
f 13/62/27 49/63/27 14/64/27 12/65/27
f 11/66/28 12/65/28 8/67/28 9/37/28
f 58/47/29 48/42/29 64/68/29
f 40/11/30 13/60/30 4/3/30
f 6/1/31 1/34/31 5/41/31
f 15/69/32 10/70/32 14/64/32
f 49/71/33 52/72/33 15/73/33 14/74/33
f 25/54/34 24/75/34 16/76/34 17/22/34
f 2/77/35 21/21/35 20/78/35
f 27/38/36 25/54/36 17/22/36 23/19/36
f 26/18/37 27/38/37 23/19/37
f 17/22/38 16/76/38 20/78/38 21/21/38
f 31/79/39 30/80/39 35/81/39 33/82/39
f 45/56/40 55/83/40 51/84/40 50/57/40
f 30/80/41 31/79/41 28/24/41
f 18/23/42 29/25/42 19/85/42 2/35/42
f 38/27/43 34/26/43 37/86/43
f 32/87/44 31/88/44 33/28/44 38/27/44
f 32/87/45 38/27/45 37/86/45
f 29/89/46 32/90/46 19/91/46
f 2/77/47 19/91/47 22/20/47 21/21/47
f 51/84/48 49/71/48 13/92/48 50/57/48
f 46/44/49 45/43/49 41/93/49
f 47/45/50 46/44/50 42/32/50
f 31/79/51 32/94/51 29/25/51 28/24/51
f 44/51/52 47/45/52 42/32/52
f 15/73/53 52/72/53 54/95/53 56/96/53
f 56/96/54 55/83/54 57/97/54 59/98/54
f 58/99/55 59/98/55 57/97/55
f 63/100/56 61/101/56 62/6/56 66/5/56
f 57/97/57 55/83/57 45/56/57
f 49/71/58 51/84/58 52/72/58
f 56/96/59 54/95/59 55/83/59
f 51/84/60 54/95/60 52/72/60
f 51/84/61 55/83/61 54/95/61
f 63/52/62 66/102/62 64/68/62
f 36/29/63 53/16/63 67/4/63 34/26/63
f 14/64/64 10/70/64 8/67/64 12/65/64
f 66/5/65 67/4/65 59/15/65 58/103/65
f 40/11/66 4/3/66 7/2/66 39/8/66
f 46/44/67 41/93/67 43/33/67 42/32/67
f 39/8/68 7/2/68 6/1/68 43/9/68
f 24/75/69 5/104/69 1/105/69 16/76/69
f 24/75/70 25/54/70 60/53/70
f 26/106/71 62/6/71 27/107/71
f 34/26/72 65/7/72 37/86/72
f 20/49/73 16/108/73 1/34/73 3/13/73
f 60/50/74 42/32/74 5/31/74 24/109/74
f 48/42/75 47/45/75 63/52/75 64/68/75
f 18/23/76 9/37/76 8/67/76 28/24/76
f 8/67/77 10/70/77 30/80/77 28/24/77
f 35/81/78 10/70/78 15/69/78 36/110/78
f 22/20/79 32/90/79 37/111/79 26/18/79
f 35/81/80 30/80/80 10/70/80
f 32/90/81 22/20/81 19/91/81
f 26/106/82 37/86/82 65/7/82 62/6/82
f 4/3/83 13/60/83 12/112/83 11/14/83
f 66/102/84 58/47/84 64/68/84
f 60/50/85 61/113/85 63/52/85 44/51/85
